<svg width="177" height="177" viewBox="0 0 177 177" fill="none" xmlns="http://www.w3.org/2000/svg">
<path d="M88.0603 176.818C100.978 176.818 113.244 174.045 124.306 169.068L0 96.2031C3.94663 141.376 41.8612 176.818 88.0603 176.818Z" fill="#B3343A"/>
<path d="M88.0605 0C74.1864 0 61.0556 3.19903 49.3722 8.8973L176.216 81.7013C172.787 36.0065 134.629 0 88.0605 0Z" fill="#B3343A"/>
<path d="M4.11591 60.6067L152.979 148.411C161.368 139.339 167.879 128.512 171.895 116.538L21.2629 30.4897C13.7 39.2001 7.82348 49.4101 4.11591 60.6067Z" fill="#B3343A"/>
<path d="M49.3713 8.896C49.3713 8.896 32.9154 19.2103 29.2166 22.5136L67.3224 45.5501L88.1074 31.1284L49.3713 8.896Z" fill="black"/>
<path d="M152.98 148.413C152.98 148.413 139.185 161.504 134.595 163.487L96.8148 140.35L118.317 127.971L152.98 148.417V148.413Z" fill="black"/>
</svg>
